{
	"asset":{
		"generator":"Khronos glTF Blender I/O v4.4.56",
		"version":"2.0"
	},
	"scene":0,
	"scenes":[
		{
			"extras":{
				"power_sequencer":{
					"frame_pre":17
				}
			},
			"name":"Scene",
			"nodes":[
				0,
				1,
				2,
				3,
				4
			]
		}
	],
	"nodes":[
		{
			"mesh":0,
			"name":"Cube",
			"rotation":[
				-0.5,
				-0.5,
				0.5,
				0.5000000596046448
			],
			"translation":[
				0.011155307292938232,
				0.17943358421325684,
				-0.02075091004371643
			]
		},
		{
			"mesh":1,
			"name":"Cylinder",
			"rotation":[
				-0.5963678359985352,
				-0.5963678359985352,
				0.3799281716346741,
				0.3799281716346741
			],
			"translation":[
				-0.15411825478076935,
				0.17943358421325684,
				0.043304502964019775
			]
		},
		{
			"mesh":2,
			"name":"Sphere",
			"rotation":[
				-0.5,
				-0.5,
				0.5,
				0.5000000596046448
			],
			"scale":[
				0.9527947902679443,
				1,
				1
			],
			"translation":[
				0.011155307292938232,
				0.5056923627853394,
				0.08071906119585037
			]
		},
		{
			"mesh":3,
			"name":"Sphere.001",
			"rotation":[
				-0.5,
				-0.5,
				0.5,
				0.5000000596046448
			],
			"scale":[
				0.4767402708530426,
				0.4767402708530426,
				0.4767402708530426
			],
			"translation":[
				0.011155307292938232,
				0.7708323001861572,
				0.08071906119585037
			]
		},
		{
			"mesh":4,
			"name":"Cylinder.001",
			"rotation":[
				-0.5932129621505737,
				-0.593212902545929,
				0.38483554124832153,
				0.3848355710506439
			],
			"translation":[
				0.099881112575531,
				0.17943358421325684,
				0.20683833956718445
			]
		}
	],
	"materials":[
		{
			"doubleSided":true,
			"name":"mob_body",
			"pbrMetallicRoughness":{
				"baseColorFactor":[
					0.0034829333890229464,
					0.019380217418074608,
					0.1014217883348465,
					1
				],
				"metallicFactor":0,
				"roughnessFactor":0.5
			}
		},
		{
			"doubleSided":true,
			"name":"mob_eye",
			"pbrMetallicRoughness":{
				"baseColorFactor":[
					0.611922025680542,
					0.0019514694577082992,
					0.012055019848048687,
					1
				],
				"metallicFactor":0,
				"roughnessFactor":0.5
			}
		},
		{
			"doubleSided":true,
			"name":"pupil",
			"pbrMetallicRoughness":{
				"baseColorFactor":[
					0,
					0,
					0,
					1
				],
				"metallicFactor":0,
				"roughnessFactor":0.5
			}
		}
	],
	"meshes":[
		{
			"name":"Cube.001",
			"primitives":[
				{
					"attributes":{
						"POSITION":0,
						"NORMAL":1,
						"TEXCOORD_0":2,
						"TANGENT":3
					},
					"indices":4,
					"material":0
				}
			]
		},
		{
			"name":"Cylinder",
			"primitives":[
				{
					"attributes":{
						"POSITION":5,
						"NORMAL":6,
						"TEXCOORD_0":7
					},
					"indices":8,
					"material":0
				}
			]
		},
		{
			"name":"Sphere",
			"primitives":[
				{
					"attributes":{
						"POSITION":9,
						"NORMAL":10,
						"TEXCOORD_0":11,
						"TANGENT":12
					},
					"indices":13,
					"material":1
				}
			]
		},
		{
			"name":"Sphere.001",
			"primitives":[
				{
					"attributes":{
						"POSITION":14,
						"NORMAL":15,
						"TEXCOORD_0":16,
						"TANGENT":17
					},
					"indices":13,
					"material":2
				}
			]
		},
		{
			"name":"Cylinder.001",
			"primitives":[
				{
					"attributes":{
						"POSITION":18,
						"NORMAL":19,
						"TEXCOORD_0":20
					},
					"indices":21,
					"material":0
				}
			]
		}
	],
	"accessors":[
		{
			"bufferView":0,
			"componentType":5126,
			"count":210,
			"max":[
				0.45267003774642944,
				1.3339719772338867,
				1.1396218538284302
			],
			"min":[
				-0.45267003774642944,
				-1.0955543518066406,
				-1.1396218538284302
			],
			"type":"VEC3"
		},
		{
			"bufferView":1,
			"componentType":5126,
			"count":210,
			"type":"VEC3"
		},
		{
			"bufferView":2,
			"componentType":5126,
			"count":210,
			"type":"VEC2"
		},
		{
			"bufferView":3,
			"componentType":5126,
			"count":210,
			"type":"VEC4"
		},
		{
			"bufferView":4,
			"componentType":5123,
			"count":1020,
			"type":"SCALAR"
		},
		{
			"bufferView":5,
			"componentType":5126,
			"count":416,
			"max":[
				0.20578017830848694,
				-0.27692949771881104,
				0.22582150995731354
			],
			"min":[
				-0.20577992498874664,
				-2.0320980548858643,
				-1.9119949340820312
			],
			"type":"VEC3"
		},
		{
			"bufferView":6,
			"componentType":5126,
			"count":416,
			"type":"VEC3"
		},
		{
			"bufferView":7,
			"componentType":5126,
			"count":416,
			"type":"VEC2"
		},
		{
			"bufferView":8,
			"componentType":5123,
			"count":1320,
			"type":"SCALAR"
		},
		{
			"bufferView":9,
			"componentType":5126,
			"count":273,
			"max":[
				0.36994194984436035,
				0.7015896439552307,
				0.7015898823738098
			],
			"min":[
				-0.37884223461151123,
				-0.7015896439552307,
				-0.7015898823738098
			],
			"type":"VEC3"
		},
		{
			"bufferView":10,
			"componentType":5126,
			"count":273,
			"type":"VEC3"
		},
		{
			"bufferView":11,
			"componentType":5126,
			"count":273,
			"type":"VEC2"
		},
		{
			"bufferView":12,
			"componentType":5126,
			"count":273,
			"type":"VEC4"
		},
		{
			"bufferView":13,
			"componentType":5123,
			"count":1296,
			"type":"SCALAR"
		},
		{
			"bufferView":14,
			"componentType":5126,
			"count":273,
			"max":[
				0.3721865117549896,
				0.7912571430206299,
				0.7912575602531433
			],
			"min":[
				-0.35923218727111816,
				-0.7912571430206299,
				-0.7912573218345642
			],
			"type":"VEC3"
		},
		{
			"bufferView":15,
			"componentType":5126,
			"count":273,
			"type":"VEC3"
		},
		{
			"bufferView":16,
			"componentType":5126,
			"count":273,
			"type":"VEC2"
		},
		{
			"bufferView":17,
			"componentType":5126,
			"count":273,
			"type":"VEC4"
		},
		{
			"bufferView":18,
			"componentType":5126,
			"count":348,
			"max":[
				0.11103575676679611,
				-0.5466701984405518,
				0.06894084811210632
			],
			"min":[
				-0.11103551834821701,
				-1.406968355178833,
				-0.8259435892105103
			],
			"type":"VEC3"
		},
		{
			"bufferView":19,
			"componentType":5126,
			"count":348,
			"type":"VEC3"
		},
		{
			"bufferView":20,
			"componentType":5126,
			"count":348,
			"type":"VEC2"
		},
		{
			"bufferView":21,
			"componentType":5123,
			"count":1128,
			"type":"SCALAR"
		}
	],
	"bufferViews":[
		{
			"buffer":0,
			"byteLength":2520,
			"byteOffset":0,
			"target":34962
		},
		{
			"buffer":0,
			"byteLength":2520,
			"byteOffset":2520,
			"target":34962
		},
		{
			"buffer":0,
			"byteLength":1680,
			"byteOffset":5040,
			"target":34962
		},
		{
			"buffer":0,
			"byteLength":3360,
			"byteOffset":6720,
			"target":34962
		},
		{
			"buffer":0,
			"byteLength":2040,
			"byteOffset":10080,
			"target":34963
		},
		{
			"buffer":0,
			"byteLength":4992,
			"byteOffset":12120,
			"target":34962
		},
		{
			"buffer":0,
			"byteLength":4992,
			"byteOffset":17112,
			"target":34962
		},
		{
			"buffer":0,
			"byteLength":3328,
			"byteOffset":22104,
			"target":34962
		},
		{
			"buffer":0,
			"byteLength":2640,
			"byteOffset":25432,
			"target":34963
		},
		{
			"buffer":0,
			"byteLength":3276,
			"byteOffset":28072,
			"target":34962
		},
		{
			"buffer":0,
			"byteLength":3276,
			"byteOffset":31348,
			"target":34962
		},
		{
			"buffer":0,
			"byteLength":2184,
			"byteOffset":34624,
			"target":34962
		},
		{
			"buffer":0,
			"byteLength":4368,
			"byteOffset":36808,
			"target":34962
		},
		{
			"buffer":0,
			"byteLength":2592,
			"byteOffset":41176,
			"target":34963
		},
		{
			"buffer":0,
			"byteLength":3276,
			"byteOffset":43768,
			"target":34962
		},
		{
			"buffer":0,
			"byteLength":3276,
			"byteOffset":47044,
			"target":34962
		},
		{
			"buffer":0,
			"byteLength":2184,
			"byteOffset":50320,
			"target":34962
		},
		{
			"buffer":0,
			"byteLength":4368,
			"byteOffset":52504,
			"target":34962
		},
		{
			"buffer":0,
			"byteLength":4176,
			"byteOffset":56872,
			"target":34962
		},
		{
			"buffer":0,
			"byteLength":4176,
			"byteOffset":61048,
			"target":34962
		},
		{
			"buffer":0,
			"byteLength":2784,
			"byteOffset":65224,
			"target":34962
		},
		{
			"buffer":0,
			"byteLength":2256,
			"byteOffset":68008,
			"target":34963
		}
	],
	"buffers":[
		{
			"byteLength":70264,
			"uri":"mob-c6f18187402385a3ab6946547bfe4692.bin"
		}
	]
}
